<svg xmlns="http://www.w3.org/2000/svg" xmlns:xlink="http://www.w3.org/1999/xlink" width="500" zoomAndPan="magnify" viewBox="0 0 375 374.999991" height="500" preserveAspectRatio="xMidYMid meet" version="1.0"><defs><clipPath id="e699208b55"><path d="M 57.5625 245 L 138 245 L 138 289 L 57.5625 289 Z M 57.5625 245 " clip-rule="nonzero"/></clipPath><clipPath id="40a1ab8756"><path d="M 237 245 L 317.8125 245 L 317.8125 289 L 237 289 Z M 237 245 " clip-rule="nonzero"/></clipPath><clipPath id="f0587889d1"><path d="M 186 37.5 L 189 37.5 L 189 262 L 186 262 Z M 186 37.5 " clip-rule="nonzero"/></clipPath><clipPath id="b65c8de006"><path d="M 147 294 L 228 294 L 228 337.5 L 147 337.5 Z M 147 294 " clip-rule="nonzero"/></clipPath></defs><g clip-path="url(#e699208b55)"><path fill="#E9C16C" d="M 137.125 266.960938 L 97.378906 245.382812 L 57.648438 266.960938 L 97.378906 288.554688 Z M 137.125 266.960938 " fill-opacity="1" fill-rule="evenodd"/></g><path fill="#E9C16C" d="M 182.175781 291.449219 L 142.445312 269.855469 L 102.710938 291.449219 L 142.445312 313.027344 Z M 182.175781 291.449219 " fill-opacity="1" fill-rule="evenodd"/><path fill="#E9C16C" d="M 187.507812 62.828125 L 232.554688 87.300781 L 187.507812 111.789062 L 142.445312 87.300781 Z M 187.507812 62.828125 " fill-opacity="1" fill-rule="evenodd"/><path fill="#E9C16C" d="M 272.304688 291.449219 L 232.554688 269.855469 L 192.824219 291.449219 L 232.554688 313.027344 Z M 272.304688 291.449219 " fill-opacity="1" fill-rule="evenodd"/><g clip-path="url(#40a1ab8756)"><path fill="#E9C16C" d="M 317.351562 266.960938 L 277.621094 245.382812 L 237.890625 266.960938 L 277.621094 288.554688 Z M 317.351562 266.960938 " fill-opacity="1" fill-rule="evenodd"/></g><path fill="#E9C16C" d="M 142.445312 179.0625 L 187.507812 154.589844 L 142.445312 130.101562 L 97.378906 154.589844 Z M 142.445312 179.0625 " fill-opacity="1" fill-rule="evenodd"/><path fill="#E9C16C" d="M 232.554688 221.898438 L 277.621094 197.425781 L 232.554688 154.589844 L 187.507812 197.425781 Z M 232.554688 221.898438 " fill-opacity="1" fill-rule="evenodd"/><path fill="#E9C16C" d="M 187.507812 288.554688 L 227.238281 266.960938 L 187.507812 245.382812 L 147.761719 266.960938 Z M 187.507812 288.554688 " fill-opacity="1" fill-rule="evenodd"/><path fill="#E9C16C" d="M 96.101562 108.28125 L 98.65625 108.28125 L 98.65625 249.664062 L 96.101562 249.664062 Z M 96.101562 108.28125 " fill-opacity="1" fill-rule="evenodd"/><path fill="#E9C16C" d="M 141.167969 57.269531 L 143.71875 57.269531 L 143.71875 277.886719 L 141.167969 277.886719 Z M 141.167969 57.269531 " fill-opacity="1" fill-rule="evenodd"/><g clip-path="url(#f0587889d1)"><path fill="#E9C16C" d="M 186.230469 37.5 L 188.785156 37.5 L 188.785156 261.320312 L 186.230469 261.320312 Z M 186.230469 37.5 " fill-opacity="1" fill-rule="evenodd"/></g><path fill="#E9C16C" d="M 231.28125 66.011719 L 233.832031 66.011719 L 233.832031 278.535156 L 231.28125 278.535156 Z M 231.28125 66.011719 " fill-opacity="1" fill-rule="evenodd"/><path fill="#E9C16C" d="M 276.34375 133.140625 L 278.898438 133.140625 L 278.898438 252.382812 L 276.34375 252.382812 Z M 276.34375 133.140625 " fill-opacity="1" fill-rule="evenodd"/><g clip-path="url(#b65c8de006)"><path fill="#E9C16C" d="M 227.238281 315.921875 L 187.507812 294.34375 L 147.761719 315.921875 L 187.507812 337.5 Z M 227.238281 315.921875 " fill-opacity="1" fill-rule="evenodd"/></g></svg>
